<?xml version="1.0" encoding="UTF-8" standalone="no"?>
<!DOCTYPE svg PUBLIC "-//W3C//DTD SVG 1.1//EN" "http://www.w3.org/Graphics/SVG/1.1/DTD/svg11.dtd">
<svg width="100%" height="100%" viewBox="0 0 3500 2000" version="1.1" xmlns="http://www.w3.org/2000/svg" xmlns:xlink="http://www.w3.org/1999/xlink" xml:space="preserve" xmlns:serif="http://www.serif.com/" style="fill-rule:evenodd;clip-rule:evenodd;stroke-linejoin:round;stroke-miterlimit:2;">
    <g>
        <path d="M500.972,1748.68C-159.447,1264.3 200.512,962.708 482.441,906.545C764.368,850.38 687.323,501.321 890.336,316.457C1022.32,196.275 1424.28,92.404 1889.16,363.413C2354.05,634.423 2928.79,619.538 3145.89,761.084C3421.84,940.997 3433.83,1360.66 3246.81,1558.21C3041.91,1774.65 2959.93,1767.49 2959.93,1767.49L500.972,1748.68Z" style="fill:rgb(230,246,250);fill-rule:nonzero;"/>
        <rect x="396.047" y="272.024" width="760.033" height="1088" style="fill:white;fill-rule:nonzero;"/>
        <path d="M401.047,1355.02L1151.08,1355.02L1151.08,277.024L401.047,277.024L401.047,1355.02ZM1161.08,1365.02L391.047,1365.02L391.047,267.024L1161.08,267.024L1161.08,1365.02Z" style="fill:rgb(99,172,194);fill-rule:nonzero;"/>
        <path d="M1079.37,562.857L611.756,562.857C606.756,562.857 602.664,558.766 602.664,553.766L602.664,552.548C602.664,547.547 606.756,543.456 611.756,543.456L1079.37,543.456C1084.37,543.456 1088.46,547.547 1088.46,552.548L1088.46,553.766C1088.46,558.766 1084.37,562.857 1079.37,562.857Z" style="fill:rgb(187,217,255);fill-rule:nonzero;"/>
        <path d="M1079.37,597.624L611.756,597.624C606.756,597.624 602.664,593.534 602.664,588.533L602.664,587.315C602.664,582.314 606.756,578.223 611.756,578.223L1079.37,578.223C1084.37,578.223 1088.46,582.314 1088.46,587.315L1088.46,588.533C1088.46,593.534 1084.37,597.624 1079.37,597.624Z" style="fill:rgb(187,217,255);fill-rule:nonzero;"/>
        <path d="M1079.37,698.16L611.756,698.16C606.756,698.16 602.664,694.068 602.664,689.068L602.664,687.85C602.664,682.85 606.756,678.759 611.756,678.759L1079.37,678.759C1084.37,678.759 1088.46,682.85 1088.46,687.85L1088.46,689.068C1088.46,694.068 1084.37,698.16 1079.37,698.16Z" style="fill:rgb(187,217,255);fill-rule:nonzero;"/>
        <path d="M1079.37,732.927L611.756,732.927C606.756,732.927 602.664,728.836 602.664,723.835L602.664,722.617C602.664,717.617 606.756,713.526 611.756,713.526L1079.37,713.526C1084.37,713.526 1088.46,717.617 1088.46,722.617L1088.46,723.835C1088.46,728.836 1084.37,732.927 1079.37,732.927Z" style="fill:rgb(187,217,255);fill-rule:nonzero;"/>
        <path d="M1079.37,857.42L611.756,857.42C606.756,857.42 602.664,853.328 602.664,848.327L602.664,847.109C602.664,842.109 606.756,838.017 611.756,838.017L1079.37,838.017C1084.37,838.017 1088.46,842.109 1088.46,847.109L1088.46,848.327C1088.46,853.328 1084.37,857.42 1079.37,857.42Z" style="fill:rgb(187,217,255);fill-rule:nonzero;"/>
        <path d="M1079.37,892.187L611.756,892.187C606.756,892.187 602.664,888.095 602.664,883.095L602.664,881.877C602.664,876.876 606.756,872.784 611.756,872.784L1079.37,872.784C1084.37,872.784 1088.46,876.876 1088.46,881.877L1088.46,883.095C1088.46,888.095 1084.37,892.187 1079.37,892.187Z" style="fill:rgb(187,217,255);fill-rule:nonzero;"/>
        <path d="M1079.37,981.78L611.756,981.78C606.756,981.78 602.664,977.688 602.664,972.687L602.664,971.47C602.664,966.469 606.756,962.377 611.756,962.377L1079.37,962.377C1084.37,962.377 1088.46,966.469 1088.46,971.47L1088.46,972.687C1088.46,977.688 1084.37,981.78 1079.37,981.78Z" style="fill:rgb(187,217,255);fill-rule:nonzero;"/>
        <path d="M1079.37,1016.55L611.756,1016.55C606.756,1016.55 602.664,1012.45 602.664,1007.45L602.664,1006.24C602.664,1001.24 606.756,997.144 611.756,997.144L1079.37,997.144C1084.37,997.144 1088.46,1001.24 1088.46,1006.24L1088.46,1007.45C1088.46,1012.45 1084.37,1016.55 1079.37,1016.55Z" style="fill:rgb(187,217,255);fill-rule:nonzero;"/>
        <path d="M512.103,610.482L481.1,610.482C467.624,610.482 456.661,599.518 456.661,586.042L456.661,555.038C456.661,541.562 467.624,530.599 481.1,530.599L512.103,530.599C525.579,530.599 536.543,541.562 536.543,555.038L536.543,586.042C536.543,599.518 525.579,610.482 512.103,610.482ZM481.1,544.598C475.344,544.598 470.66,549.282 470.66,555.038L470.66,586.042C470.66,591.799 475.344,596.481 481.1,596.481L512.103,596.481C517.86,596.481 522.543,591.799 522.543,586.042L522.543,555.038C522.543,549.282 517.86,544.598 512.103,544.598L481.1,544.598Z" style="fill:rgb(177,211,255);fill-rule:nonzero;"/>
        <path d="M512.103,742.246L481.1,742.246C467.624,742.246 456.661,731.284 456.661,717.807L456.661,686.804C456.661,673.328 467.624,662.363 481.1,662.363L512.103,662.363C525.579,662.363 536.543,673.328 536.543,686.804L536.543,717.807C536.543,731.284 525.579,742.246 512.103,742.246ZM481.1,676.364C475.344,676.364 470.66,681.047 470.66,686.804L470.66,717.807C470.66,723.563 475.344,728.247 481.1,728.247L512.103,728.247C517.86,728.247 522.543,723.563 522.543,717.807L522.543,686.804C522.543,681.047 517.86,676.364 512.103,676.364L481.1,676.364Z" style="fill:rgb(177,211,255);fill-rule:nonzero;"/>
        <path d="M498.541,723.807C498.444,723.807 498.347,723.805 498.25,723.8C496.487,723.715 494.852,722.858 493.778,721.458L471.494,692.392C469.478,689.762 469.976,685.996 472.605,683.979C475.235,681.963 479.001,682.461 481.018,685.091L498.989,708.532L548.409,655.582C550.671,653.158 554.469,653.029 556.89,655.289C559.313,657.55 559.443,661.347 557.183,663.769L502.927,721.901C501.789,723.12 500.199,723.807 498.541,723.807Z" style="fill:rgb(243,113,104);fill-rule:nonzero;"/>
        <path d="M481.1,831.589C474.792,831.589 469.661,836.721 469.661,843.028L469.661,874.032C469.661,880.34 474.792,885.472 481.1,885.472L512.104,885.472C518.411,885.472 523.543,880.34 523.543,874.032L523.543,843.028C523.543,836.721 518.411,831.589 512.104,831.589L481.1,831.589ZM512.104,897.472L481.1,897.472C468.176,897.472 457.661,886.957 457.661,874.032L457.661,843.028C457.661,830.104 468.176,819.589 481.1,819.589L512.104,819.589C525.028,819.589 535.543,830.104 535.543,843.028L535.543,874.032C535.543,886.957 525.028,897.472 512.104,897.472Z" style="fill:rgb(158,200,255);fill-rule:nonzero;"/>
        <path d="M512.103,1030.24L481.1,1030.24C467.624,1030.24 456.661,1019.27 456.661,1005.8L456.661,974.794C456.661,961.318 467.624,950.354 481.1,950.354L512.103,950.354C525.579,950.354 536.543,961.318 536.543,974.794L536.543,1005.8C536.543,1019.27 525.579,1030.24 512.103,1030.24ZM481.1,964.355C475.344,964.355 470.66,969.038 470.66,974.794L470.66,1005.8C470.66,1011.55 475.344,1016.24 481.1,1016.24L512.103,1016.24C517.86,1016.24 522.543,1011.55 522.543,1005.8L522.543,974.794C522.543,969.038 517.86,964.355 512.103,964.355L481.1,964.355Z" style="fill:rgb(177,211,255);fill-rule:nonzero;"/>
        <path d="M645.203,442.381L625.553,442.381L588.463,356.412L609.955,356.412L636.115,417.818L662.643,356.412L682.416,356.412L645.203,442.381Z" style="fill:rgb(146,197,212);fill-rule:nonzero;"/>
        <path d="M736.33,443.855C727.405,443.855 719.361,441.932 712.197,438.083C705.032,434.235 699.424,428.933 695.372,422.178C691.32,415.424 689.293,407.83 689.293,399.396C689.293,390.964 691.32,383.369 695.372,376.614C699.424,369.859 705.032,364.559 712.197,360.71C719.361,356.862 727.405,354.938 736.33,354.938C745.254,354.938 753.279,356.862 760.403,360.71C767.525,364.559 773.133,369.859 777.227,376.614C781.321,383.369 783.369,390.964 783.369,399.396C783.369,407.83 781.321,415.424 777.227,422.178C773.133,428.933 767.525,434.235 760.403,438.083C753.279,441.932 745.254,443.855 736.33,443.855ZM736.33,371.886C731.253,371.886 726.669,373.053 722.575,375.386C718.481,377.72 715.268,380.974 712.934,385.15C710.6,389.326 709.435,394.075 709.435,399.396C709.435,404.719 710.6,409.467 712.934,413.642C715.268,417.818 718.481,421.073 722.575,423.407C726.669,425.74 731.253,426.907 736.33,426.907C741.406,426.907 745.99,425.74 750.086,423.407C754.178,421.073 757.394,417.818 759.726,413.642C762.06,409.467 763.227,404.719 763.227,399.396C763.227,394.075 762.06,389.326 759.726,385.15C757.394,380.974 754.178,377.72 750.086,375.386C745.99,373.053 741.406,371.886 736.33,371.886Z" style="fill:rgb(146,197,212);fill-rule:nonzero;"/>
        <path d="M840.967,442.381L821.073,442.381L821.073,372.623L793.561,372.623L793.561,356.412L868.479,356.412L868.479,372.623L840.967,372.623L840.967,442.381Z" style="fill:rgb(146,197,212);fill-rule:nonzero;"/>
        <path d="M951.868,442.381L885.302,442.381L885.302,356.412L950.272,356.412L950.272,372.377L905.076,372.377L905.076,391.045L944.99,391.045L944.99,406.52L905.076,406.52L905.076,426.415L951.868,426.415L951.868,442.381Z" style="fill:rgb(146,197,212);fill-rule:nonzero;"/>
        <path d="M2950.46,430.467C2944.18,430.376 2938.01,430.618 2931.99,431.152C2932.34,427.748 2932.55,424.312 2932.6,420.842C2933.75,340.533 2853.38,274.262 2753.07,272.823C2670.84,271.643 2600.76,314.412 2577.54,374.116C2560.3,367.551 2541.12,363.759 2520.88,363.468C2444.47,362.372 2381.81,411.562 2380.93,473.338C2380.04,535.115 2441.26,586.083 2517.67,587.18C2569.32,587.921 2903.73,586.541 2948.25,587.18C3013.22,588.112 3066.39,551.637 3067,509.126C3067.61,466.616 3015.43,431.399 2950.46,430.467Z" style="fill:white;fill-rule:nonzero;"/>
        <path d="M2749.75,272.799C2668.95,272.794 2600.44,315.213 2577.54,374.116C2560.3,367.551 2541.12,363.759 2520.88,363.468C2520.04,363.457 2519.21,363.45 2518.38,363.45C2443.11,363.448 2381.8,412.237 2380.93,473.338C2380.04,535.115 2441.26,586.083 2517.67,587.18C2529.21,587.346 2554.87,587.405 2588.24,587.405C2674.58,587.405 2812.63,587.005 2891.87,587.005C2919.12,587.005 2939.41,587.053 2948.25,587.18C2949.07,587.191 2949.88,587.197 2950.69,587.197C3014.55,587.197 3066.39,551.105 3067,509.126C3067.61,466.616 3015.43,431.399 2950.46,430.467C2949.6,430.454 2948.74,430.448 2947.89,430.448C2942.5,430.448 2937.19,430.691 2931.99,431.152C2932.34,427.748 2932.55,424.312 2932.6,420.842C2933.75,340.533 2853.38,274.262 2753.07,272.823C2751.97,272.807 2750.85,272.799 2749.75,272.799ZM2749.75,282.799C2750.81,282.799 2751.87,282.807 2752.93,282.822C2847.56,284.18 2923.67,346.031 2922.6,420.699C2922.56,423.764 2922.37,426.939 2922.04,430.137L2920.81,442.183L2932.87,441.113C2937.85,440.672 2942.9,440.448 2947.89,440.448C2948.7,440.448 2949.51,440.454 2950.32,440.466C2979.82,440.889 3007.31,448.712 3027.73,462.493C3046.85,475.399 3057.24,491.91 3057,508.983C3056.75,526.074 3046.08,542.641 3026.95,555.63C3006.46,569.538 2979.38,577.197 2950.69,577.197C2949.93,577.197 2949.16,577.192 2948.4,577.181C2940.18,577.063 2921.69,577.005 2891.87,577.005C2853.09,577.005 2801.19,577.1 2746.25,577.199C2690.24,577.3 2632.33,577.405 2588.24,577.405C2551.37,577.405 2528.33,577.332 2517.81,577.181C2447.04,576.165 2390.12,529.646 2390.93,473.482C2391.31,447.001 2404.47,422.076 2427.99,403.295C2452.1,384.048 2484.2,373.449 2518.38,373.45C2519.16,373.45 2519.95,373.456 2520.74,373.467C2539.35,373.734 2557.27,377.097 2573.98,383.461L2583.26,386.995L2586.86,377.74C2592.08,364.303 2599.94,351.632 2610.22,340.082C2620.45,328.575 2632.85,318.438 2647.06,309.953C2676.82,292.187 2712.33,282.797 2749.75,282.799Z" style="fill:rgb(99,172,194);fill-rule:nonzero;"/>
        <path d="M3174.05,559.587C3170.13,559.531 3166.28,559.682 3162.52,560.015C3162.74,557.89 3162.87,555.744 3162.9,553.578C3163.62,503.436 3113.44,462.06 3050.81,461.161C2999.47,460.424 2955.71,487.127 2941.21,524.404C2930.45,520.305 2918.48,517.938 2905.84,517.756C2858.13,517.071 2819.01,547.784 2818.46,586.354C2817.9,624.925 2856.13,656.748 2903.83,657.433C2936.08,657.896 3144.88,657.034 3172.67,657.433C3213.24,658.015 3246.43,635.241 3246.81,608.699C3247.19,582.158 3214.62,560.169 3174.05,559.587Z" style="fill:white;fill-rule:nonzero;"/>
        <path d="M3048.74,461.146C2998.29,461.143 2955.52,487.628 2941.21,524.404C2930.45,520.305 2918.48,517.938 2905.84,517.756C2905.32,517.749 2904.79,517.745 2904.27,517.745C2857.28,517.743 2819,548.206 2818.46,586.354C2817.9,624.925 2856.13,656.748 2903.83,657.433C2911.04,657.536 2927.06,657.573 2947.9,657.573C3001.81,657.573 3088,657.324 3137.47,657.324C3154.49,657.324 3167.15,657.354 3172.67,657.433C3173.18,657.44 3173.69,657.443 3174.2,657.443C3214.07,657.443 3246.44,634.909 3246.81,608.699C3247.19,582.158 3214.62,560.169 3174.05,559.587C3173.52,559.58 3172.98,559.576 3172.45,559.576C3169.08,559.576 3165.77,559.728 3162.52,560.015C3162.74,557.89 3162.87,555.744 3162.9,553.578C3163.62,503.436 3113.44,462.06 3050.81,461.161C3050.12,461.151 3049.43,461.146 3048.74,461.146ZM3048.74,471.146C3049.38,471.146 3050.03,471.15 3050.67,471.16C3078.69,471.562 3104.82,480.604 3124.25,496.619C3143.03,512.104 3153.2,532.281 3152.9,553.434C3152.87,555.241 3152.76,557.114 3152.57,559L3151.34,571.046L3163.4,569.976C3166.4,569.71 3169.44,569.576 3172.45,569.576C3172.93,569.576 3173.42,569.579 3173.91,569.586C3208.3,570.08 3237.11,587.926 3236.81,608.556C3236.68,617.83 3230.44,627.332 3219.7,634.627C3207.52,642.892 3191.36,647.443 3174.2,647.443C3173.74,647.443 3173.28,647.44 3172.82,647.434C3167.67,647.36 3156.11,647.324 3137.47,647.324C3113.25,647.324 3080.85,647.383 3046.54,647.445C3011.58,647.508 2975.42,647.573 2947.9,647.573C2924.89,647.573 2910.53,647.528 2903.98,647.434C2861.86,646.829 2827.98,619.494 2828.46,586.498C2828.68,571.109 2836.39,556.57 2850.19,545.558C2864.58,534.07 2883.79,527.744 2904.27,527.745C2904.75,527.745 2905.22,527.748 2905.7,527.755C2916.88,527.916 2927.63,529.932 2937.65,533.749L2946.93,537.283L2950.53,528.029C2956.72,512.107 2969.51,497.739 2986.55,487.568C3004.54,476.823 3026.05,471.145 3048.74,471.146Z" style="fill:rgb(99,172,194);fill-rule:nonzero;"/>
        <path d="M384.047,1765.69C384.047,1765.69 174.897,1543.34 255.472,1527.68C336.047,1512.02 420.678,1713.78 428.362,1692.9C436.047,1672.02 372.047,1446.43 408.047,1441.23C444.047,1436.02 504.179,1697.46 504.179,1697.46C504.179,1697.46 512.732,1561.16 578.39,1532.59C644.047,1504.02 562.591,1760.99 562.591,1760.99L384.047,1765.69Z" style="fill:rgb(156,212,153);fill-rule:nonzero;"/>
        <path d="M2284.05,1498.24C2471.83,1365.85 2522.04,1301.85 2572.61,1092.91C2623.17,883.967 2856.24,631.637 2756.01,674.337C2655.77,717.039 2482.56,901.374 2489.56,1080.26C2496.57,1259.16 2470.58,1310.65 2441.1,1351.71C2411.62,1392.78 2285.24,1483.84 2285.24,1483.84L2284.05,1498.24Z" style="fill:rgb(156,212,153);fill-rule:nonzero;"/>
        <path d="M2400.84,1408.78C2401.5,1408.21 2402.14,1407.64 2402.79,1407.07C2414.06,1392.14 2471.55,1314.92 2484.99,1275.38C2499.92,1231.49 2487.95,1117.81 2534.26,1035.34C2580.56,952.873 2602.14,874.903 2624.18,815.725C2653.28,737.591 2737.46,678.402 2780.54,674.638C2780.38,673.837 2780.1,673.14 2779.74,672.525L2769.13,670.007C2765.62,670.669 2761.28,672.09 2756.01,674.337C2655.77,717.039 2482.56,901.374 2489.56,1080.26C2496.57,1259.16 2470.58,1310.65 2441.1,1351.72C2433.15,1362.79 2418.14,1377.51 2400.47,1393.09L2400.84,1408.78Z" style="fill:rgb(116,181,112);fill-rule:nonzero;"/>
        <path d="M2535.64,1227.68C2589.82,1013.83 3165.59,785.516 3113.32,852.121C3061.05,918.726 2922.01,1079.27 2764.83,1139.95C2607.64,1200.63 2547.75,1288.77 2509.63,1396.44C2471.51,1504.12 2481.46,1441.53 2535.64,1227.68Z" style="fill:rgb(156,212,153);fill-rule:nonzero;"/>
        <path d="M2442.64,1483.19C2438.44,1483.19 2435.32,1482.32 2435.07,1482.25C2433.48,1481.78 2432.56,1480.12 2433.03,1478.53C2433.49,1476.94 2435.15,1476.02 2436.74,1476.48C2436.82,1476.5 2445.64,1478.93 2452.29,1474.65C2456.31,1472.06 2458.85,1467.44 2459.84,1460.91C2466.21,1418.9 2480.52,1386.9 2493.15,1358.66C2500.89,1341.34 2507.58,1326.38 2511.27,1311.76C2516.57,1290.74 2531.98,1253.72 2559.32,1212.86C2592.71,1162.96 2636.25,1119.17 2685.24,1086.22C2742.82,1047.49 2783.64,1025.54 2840.14,995.153C2895.96,965.134 2965.44,927.774 3081.48,858.338C3082.9,857.487 3084.74,857.949 3085.59,859.372C3086.44,860.793 3085.98,862.636 3084.56,863.486C2968.4,932.993 2898.86,970.39 2842.98,1000.44C2786.63,1030.74 2745.92,1052.63 2688.58,1091.2C2574.48,1167.95 2526.1,1277.5 2517.09,1313.23C2513.27,1328.36 2506.16,1344.27 2498.63,1361.11C2486.16,1389 2472.02,1420.6 2465.77,1461.81C2464.51,1470.14 2461.05,1476.17 2455.49,1479.73C2451.21,1482.46 2446.48,1483.19 2442.64,1483.19Z" style="fill:rgb(116,181,112);fill-rule:nonzero;"/>
        <path d="M2849.56,1001.53C2843.78,1001.53 2840.44,1001.29 2840.1,1001.27C2838.45,1001.15 2837.21,999.711 2837.33,998.059C2837.45,996.406 2838.89,995.183 2840.54,995.285C2841.35,995.342 2922.65,1000.65 2998.44,953.47C2999.85,952.595 3001.7,953.024 3002.57,954.432C3003.45,955.838 3003.02,957.688 3001.61,958.563C2961.1,983.778 2919.39,994.047 2891.53,998.222C2873.19,1000.97 2858.48,1001.53 2849.56,1001.53Z" style="fill:rgb(116,181,112);fill-rule:nonzero;"/>
        <path d="M2829.62,1064.88C2777.82,1064.88 2746.69,1054.91 2746.26,1054.77C2744.69,1054.25 2743.83,1052.56 2744.35,1050.99C2744.87,1049.41 2746.56,1048.56 2748.14,1049.07C2748.72,1049.26 2807.13,1067.9 2897.55,1053.32C2899.18,1053.06 2900.73,1054.17 2900.99,1055.81C2901.26,1057.44 2900.14,1058.98 2898.51,1059.25C2872.84,1063.38 2849.68,1064.88 2829.62,1064.88Z" style="fill:rgb(116,181,112);fill-rule:nonzero;"/>
        <path d="M896.466,1760.99C896.466,1760.99 704.804,1564.96 730.686,1527.87C775.238,1464.02 964.934,1685.07 964.934,1685.07C964.934,1685.07 699.238,1090.04 748.047,961.357C796.856,832.677 995.783,1246.49 995.783,1246.49C995.783,1246.49 1186.71,324.689 1271.38,336.357C1356.05,348.024 1312.6,816.811 1312.6,816.811L1889.16,608.024C1889.16,608.024 2140.05,366.305 2200.05,403.165C2260.05,440.024 2093.78,667.123 2118.92,657.573C2144.05,648.024 2402.79,366.544 2479.42,427.284C2556.05,488.024 2172.78,742.899 2172.78,742.899L2429.49,1607.18C2429.49,1607.18 2636.07,1159.19 2866.9,1205.86C2985.2,1229.77 2623.87,1558.01 2623.87,1558.01C2623.87,1558.01 2850.2,1392.88 2939.25,1441.23C3028.3,1489.58 2691.99,1613.27 2736.08,1631.42C2780.17,1649.58 2641.08,1739.58 2641.08,1739.58C2641.08,1739.58 2750.88,1672.43 2799.47,1700.23C2848.05,1728.02 2831.97,1765.69 2831.97,1765.69L896.466,1760.99Z" style="fill:rgb(156,212,153);fill-rule:nonzero;"/>
        <path d="M3067,1760.99C3067,1760.99 3080.05,1502.83 3132.05,1513.43C3184.05,1524.02 3120.05,1706.9 3132.05,1697.46C3144.05,1688.02 3250.44,1390.27 3311.25,1441.15C3372.05,1492.02 3189.12,1671.03 3189.12,1671.03C3189.12,1671.03 3282.44,1606.82 3311.25,1631.42C3340.05,1656.02 3216.05,1760.99 3216.05,1760.99L3067,1760.99Z" style="fill:rgb(156,212,153);fill-rule:nonzero;"/>
        <path d="M924.465,1543.52C924.285,1538.42 798.051,1292.53 681.969,1318.62C565.887,1344.7 549.767,1380.02 469.609,1396.14C412.422,1407.65 364.703,1405.99 364.703,1405.99C364.703,1405.99 420.566,1468.22 530.171,1461.44C607.665,1456.65 685.45,1387.98 741.786,1377.3C798.123,1366.61 867.696,1469.91 867.696,1469.91L898.791,1525.53L924.465,1543.52Z" style="fill:rgb(156,212,153);fill-rule:nonzero;"/>
        <path d="M888.11,1472.19C887.194,1472.19 886.29,1471.77 885.701,1470.98C820.455,1383.27 766.675,1338.17 716.45,1329.06C672.322,1321.05 636.66,1342.05 598.908,1364.27C589.369,1369.89 579.506,1375.69 569.507,1381C481.917,1427.44 429.81,1421.8 427.635,1421.54C425.991,1421.34 424.818,1419.85 425.017,1418.21C425.215,1416.56 426.707,1415.39 428.355,1415.59C428.867,1415.65 480.975,1421.15 566.696,1375.69C576.577,1370.45 586.382,1364.68 595.864,1359.1C634.603,1336.29 671.191,1314.75 717.521,1323.16C769.335,1332.56 824.306,1378.39 890.516,1467.4C891.504,1468.73 891.229,1470.61 889.898,1471.6C889.361,1472 888.733,1472.19 888.11,1472.19Z" style="fill:rgb(116,181,112);fill-rule:nonzero;"/>
        <path d="M925.684,1546.78C836.089,1261.43 713.059,1132.95 532.045,1061.95C351.031,990.946 333.252,961.357 333.252,961.357C333.252,961.357 441.515,1189.93 550.441,1242.73C659.367,1295.54 796.847,1313.74 829.139,1350.03C861.431,1386.32 907.823,1530.99 907.823,1530.99L927.916,1552.84L925.684,1546.78Z" style="fill:rgb(156,212,153);fill-rule:nonzero;"/>
        <path d="M921.059,1532.55C919.732,1532.55 918.521,1531.67 918.162,1530.33C918.038,1529.86 905.438,1483.19 877.348,1423.62C851.466,1368.74 806.757,1291.36 740.751,1234.43C675.407,1178.06 617.231,1152.72 560.971,1128.21C507.689,1105.01 457.363,1083.09 408.063,1036.76C406.855,1035.63 406.796,1033.73 407.931,1032.52C409.065,1031.31 410.964,1031.25 412.171,1032.39C460.713,1078 510.576,1099.72 563.367,1122.71C620.037,1147.4 678.638,1172.92 744.671,1229.88C811.508,1287.54 856.693,1365.73 882.83,1421.18C911.129,1481.21 923.834,1528.31 923.959,1528.78C924.386,1530.38 923.435,1532.03 921.834,1532.45C921.575,1532.52 921.314,1532.55 921.059,1532.55Z" style="fill:rgb(116,181,112);fill-rule:nonzero;"/>
        <path d="M627.408,1158.02C627.111,1158.02 626.809,1157.98 626.51,1157.89C625.835,1157.67 558.107,1136.88 479.489,1149.83C477.853,1150.1 476.311,1148.99 476.042,1147.36C475.772,1145.72 476.879,1144.18 478.515,1143.91C558.603,1130.72 627.62,1151.95 628.307,1152.16C629.888,1152.66 630.767,1154.34 630.271,1155.92C629.868,1157.2 628.685,1158.02 627.408,1158.02Z" style="fill:rgb(116,181,112);fill-rule:nonzero;"/>
        <path d="M757.938,1248.47C757.273,1248.47 756.604,1248.25 756.048,1247.8C693.792,1197.18 642.181,1197.46 531.376,1202.9C529.709,1203.02 528.313,1201.71 528.232,1200.05C528.15,1198.4 529.427,1196.99 531.081,1196.91C643.477,1191.39 695.865,1191.13 759.833,1243.15C761.118,1244.19 761.313,1246.08 760.269,1247.37C759.675,1248.1 758.811,1248.47 757.938,1248.47Z" style="fill:rgb(116,181,112);fill-rule:nonzero;"/>
        <path d="M3364.12,1767.49L261.972,1767.49C258.383,1767.49 255.472,1764.58 255.472,1760.99C255.472,1757.4 258.383,1754.49 261.972,1754.49L3364.12,1754.49C3367.71,1754.49 3370.62,1757.4 3370.62,1760.99C3370.62,1764.58 3367.71,1767.49 3364.12,1767.49Z" style="fill:rgb(35,46,79);fill-rule:nonzero;"/>
        <path d="M1637.23,401.79C1663.14,418.288 1712.32,475.024 1743.68,508.024C1775.05,541.024 1792.05,559.359 1792.05,559.359L1405.05,550.024C1405.05,550.024 1426.05,534.861 1445.05,507.024C1464.05,479.188 1470.4,453.986 1523.05,418.024C1576.05,381.82 1611.93,385.685 1637.23,401.79Z" style="fill:rgb(250,207,80);fill-rule:nonzero;"/>
        <path d="M1568.05,415.024C1587.05,415.024 1599.05,488.024 1608.05,504.024C1617.05,520.024 1664.42,523.024 1664.42,523.024L1664.42,492.861C1664.42,492.861 1673.05,515.524 1679.05,529.848C1696.05,519.024 1718.55,506.024 1740.56,504.51C1742.57,505.617 1780.57,544.856 1780.57,544.856L1464.05,550.024C1464.05,550.024 1445.05,540.024 1448.05,540.024C1451.05,540.024 1474.48,500.024 1493.76,482.524C1513.05,465.024 1568.05,415.024 1568.05,415.024Z" style="fill:rgb(224,176,62);fill-rule:nonzero;"/>
        <path d="M1673.05,535.524C1673.05,535.524 1735.05,509.024 1766.05,513.524C1797.05,518.024 1805.05,535.524 1805.05,535.524L1673.05,535.524Z" style="fill:rgb(250,207,80);fill-rule:nonzero;"/>
        <path d="M2011.13,1667.39L2011.13,1447.99L1502.91,1447.99L1502.91,1667.39L1337.67,1667.39C1306.99,1667.39 1282.13,1692.26 1282.13,1722.94L1282.13,1736.44C1282.13,1746.41 1290.21,1754.49 1300.18,1754.49L2213.86,1754.49C2223.84,1754.49 2231.92,1746.41 2231.92,1736.44L2231.92,1722.94C2231.92,1692.26 2207.05,1667.39 2176.38,1667.39L2011.13,1667.39Z" style="fill:rgb(62,107,171);fill-rule:nonzero;"/>
        <path d="M1502.91,1598.39L2011.13,1559.21L2011.13,1466.79L1502.91,1472.17L1502.91,1598.39Z" style="fill:rgb(28,68,122);fill-rule:nonzero;"/>
        <path d="M2011.13,1631.42L1502.91,1667.39L2011.13,1667.39L2011.13,1631.42Z" style="fill:rgb(28,68,122);fill-rule:nonzero;"/>
        <path d="M2523.99,1498.13L990.057,1498.13C975.03,1498.13 962.848,1485.95 962.848,1470.92L962.848,557.057C962.848,542.03 975.03,529.848 990.057,529.848L2523.99,529.848C2539.02,529.848 2551.2,542.03 2551.2,557.057L2551.2,1470.92C2551.2,1485.95 2539.02,1498.13 2523.99,1498.13Z" style="fill:rgb(62,107,171);fill-rule:nonzero;"/>
        <path d="M2482.08,1400.13L1031.97,1400.13C1018.44,1400.13 1007.48,1389.17 1007.48,1375.65L1007.48,593.808C1007.48,580.285 1018.44,569.322 1031.97,569.322L2482.08,569.322C2495.6,569.322 2506.56,580.285 2506.56,593.808L2506.56,1375.65C2506.56,1389.17 2495.6,1400.13 2482.08,1400.13Z" style="fill:rgb(191,230,242);fill-rule:nonzero;"/>
        <path d="M1812.56,1466.79L1701.49,1466.79C1695.38,1466.79 1690.38,1461.79 1690.38,1455.68L1690.38,1452.33C1690.38,1446.22 1695.38,1441.23 1701.49,1441.23L1812.56,1441.23C1818.67,1441.23 1823.67,1446.22 1823.67,1452.33L1823.67,1455.68C1823.67,1461.79 1818.67,1466.79 1812.56,1466.79Z" style="fill:rgb(28,68,122);fill-rule:nonzero;"/>
        <path d="M2234.14,1066.63C2220.91,1066.44 2207.92,1066.99 2195.23,1068.19C2195.97,1060.59 2196.42,1052.92 2196.53,1045.17C2199.11,865.88 2029.96,718.078 1818.74,715.046C1645.56,712.561 1497.89,808.17 1448.88,941.5C1412.59,926.875 1372.21,918.444 1329.58,917.833C1168.68,915.523 1036.63,1025.45 1034.65,1163.37C1032.67,1301.29 1161.51,1414.96 1322.42,1417.27C1431.19,1418.83 2135.45,1415.14 2229.2,1416.49C2366.02,1418.45 2478.04,1336.93 2479.41,1242.02C2480.77,1147.12 2370.96,1068.59 2234.14,1066.63Z" style="fill:white;fill-rule:nonzero;"/>
        <path d="M1812.14,714.999C1641.81,714.994 1497.26,809.863 1448.88,941.5C1412.59,926.875 1372.21,918.445 1329.58,917.833C1327.92,917.809 1326.26,917.797 1324.61,917.797C1165.96,917.794 1036.61,1026.88 1034.65,1163.37C1032.67,1301.29 1161.51,1414.96 1322.42,1417.27C1342.06,1417.55 1381.15,1417.66 1432.54,1417.66C1620.23,1417.66 1972.29,1416.19 2142.5,1416.19C2183.71,1416.19 2214.22,1416.27 2229.2,1416.49C2230.81,1416.51 2232.44,1416.52 2234.04,1416.52C2368.66,1416.52 2478.06,1335.81 2479.41,1242.02C2480.77,1147.12 2370.96,1068.59 2234.14,1066.63C2232.43,1066.6 2230.72,1066.59 2229.02,1066.59C2217.56,1066.59 2206.28,1067.14 2195.23,1068.19C2195.97,1060.59 2196.42,1052.92 2196.53,1045.17C2199.11,865.88 2029.96,718.078 1818.74,715.046C1816.54,715.014 1814.33,714.999 1812.14,714.999ZM1812.14,734.999C1814.24,734.999 1816.36,735.014 1818.45,735.044C1867.77,735.752 1915.47,744.625 1960.21,761.419C2003.26,777.577 2041.77,800.338 2074.65,829.071C2107.3,857.598 2132.74,890.559 2150.27,927.039C2168.28,964.532 2177.12,1004.18 2176.54,1044.88C2176.44,1051.83 2176.03,1059.02 2175.33,1066.26L2172.98,1090.39L2197.12,1088.1C2207.69,1087.1 2218.43,1086.59 2229.02,1086.59C2230.62,1086.59 2232.24,1086.6 2233.85,1086.62C2265.39,1087.08 2295.88,1091.79 2324.47,1100.62C2351.79,1109.07 2376.18,1120.88 2396.96,1135.74C2437.79,1164.94 2459.97,1202.58 2459.41,1241.73C2459.13,1261.11 2453.38,1280.21 2442.31,1298.51C2431.18,1316.92 2415.27,1333.64 2395.02,1348.21C2374.18,1363.2 2349.97,1375.02 2323.07,1383.34C2294.78,1392.09 2264.83,1396.52 2234.04,1396.52C2232.53,1396.52 2231,1396.51 2229.49,1396.49C2215.27,1396.29 2186.81,1396.19 2142.5,1396.19C2059.45,1396.19 1935.25,1396.53 1803.75,1396.9C1668.5,1397.28 1528.65,1397.66 1432.54,1397.66C1376.94,1397.66 1341.01,1397.54 1322.7,1397.27C1285.7,1396.74 1249.93,1390.03 1216.38,1377.32C1184.13,1365.1 1155.3,1347.89 1130.68,1326.18C1106.29,1304.66 1087.29,1279.8 1074.21,1252.31C1060.79,1224.1 1054.21,1194.27 1054.65,1163.66C1055.51,1103.57 1083.62,1047.1 1133.79,1004.67C1158.53,983.736 1187.34,967.295 1219.4,955.799C1252.71,943.853 1288.11,937.796 1324.61,937.797C1326.17,937.797 1327.75,937.808 1329.3,937.831C1368.49,938.394 1406.21,945.869 1441.4,960.05L1460.53,967.76L1467.65,948.4C1478.8,918.06 1495.54,889.475 1517.41,863.437C1539.12,837.586 1565.39,814.825 1595.48,795.784C1626.02,776.453 1659.79,761.42 1695.83,751.104C1733.17,740.416 1772.31,734.998 1812.14,734.999Z" style="fill:rgb(46,91,154);fill-rule:nonzero;"/>
        <path d="M2118.92,1400.13L1372.88,1400.13L1372.88,1100.36L1572.46,1030.6L1906.64,1030.6L2118.92,1100.36L2118.92,1400.13Z" style="fill:rgb(243,113,104);fill-rule:nonzero;"/>
        <path d="M1572.46,1030.6L1372.88,1100.36L2118.92,1100.36L1906.64,1030.6L1572.46,1030.6Z" style="fill:rgb(213,74,65);fill-rule:nonzero;"/>
        <path d="M1889.16,1074.39L1598.2,1074.39L1650.49,1046.26L1836.88,1046.26L1889.16,1074.39Z" style="fill:rgb(243,113,104);fill-rule:nonzero;"/>
        <path d="M1846.09,1063.33L1644.21,1063.33C1642.56,1063.33 1641.21,1061.98 1641.21,1060.33C1641.21,1058.67 1642.56,1057.33 1644.21,1057.33L1846.09,1057.33C1847.75,1057.33 1849.09,1058.67 1849.09,1060.33C1849.09,1061.98 1847.75,1063.33 1846.09,1063.33Z" style="fill:rgb(153,51,65);fill-rule:nonzero;"/>
        <path d="M1924.69,1326.91L1559.72,1326.91C1546.33,1326.91 1535.38,1315.95 1535.38,1302.57L1535.38,1239.71C1535.38,1226.32 1546.33,1215.37 1559.72,1215.37L1924.69,1215.37C1938.07,1215.37 1949.03,1226.32 1949.03,1239.71L1949.03,1302.57C1949.03,1315.95 1938.07,1326.91 1924.69,1326.91Z" style="fill:rgb(213,74,65);fill-rule:nonzero;"/>
        <path d="M1615.73,793.345C1626.3,777.137 1724.96,748.245 1732.01,748.949C1739.05,749.654 1790.19,864.519 1800.91,909.619C1811.64,954.719 1813.05,961.766 1813.05,961.766C1813.05,961.766 1698.89,999.115 1677.75,1002.64L1656.61,1006.16C1656.61,1006.16 1646.04,904.686 1635.46,867.337C1624.89,829.989 1615.73,793.345 1615.73,793.345Z" style="fill:rgb(219,229,235);fill-rule:nonzero;"/>
        <path d="M1689.72,959.334C1688.63,959.334 1687.63,958.61 1687.32,957.506C1686.95,956.177 1687.72,954.797 1689.05,954.426L1754.59,936.104C1755.92,935.729 1757.3,936.51 1757.67,937.839C1758.04,939.168 1757.27,940.548 1755.94,940.919L1690.4,959.24C1690.17,959.304 1689.95,959.334 1689.72,959.334Z" style="fill:rgb(62,107,171);fill-rule:nonzero;"/>
        <path d="M1686.2,950.173C1685.12,950.173 1684.12,949.461 1683.8,948.365C1683.42,947.039 1684.18,945.653 1685.51,945.271L1748.93,926.949C1750.26,926.563 1751.64,927.329 1752.03,928.657C1752.41,929.983 1751.65,931.369 1750.32,931.752L1686.9,950.073C1686.66,950.141 1686.43,950.173 1686.2,950.173Z" style="fill:rgb(62,107,171);fill-rule:nonzero;"/>
        <path d="M1674.22,912.12C1673.12,912.12 1672.12,911.393 1671.81,910.284C1671.45,908.953 1672.23,907.576 1673.56,907.209L1732.75,890.883C1734.09,890.512 1735.46,891.297 1735.83,892.628C1736.19,893.959 1735.41,895.336 1734.08,895.703L1674.89,912.029C1674.67,912.091 1674.44,912.12 1674.22,912.12Z" style="fill:rgb(62,107,171);fill-rule:nonzero;"/>
        <path d="M1674.22,903.957C1673.13,903.957 1672.12,903.232 1671.81,902.127C1671.44,900.797 1672.22,899.419 1673.55,899.048L1732.75,882.547C1734.07,882.174 1735.45,882.955 1735.83,884.284C1736.2,885.614 1735.42,886.992 1734.09,887.363L1674.89,903.864C1674.67,903.927 1674.44,903.957 1674.22,903.957Z" style="fill:rgb(62,107,171);fill-rule:nonzero;"/>
        <path d="M1660.83,871.248C1659.75,871.248 1658.76,870.544 1658.44,869.457C1658.04,868.134 1658.8,866.742 1660.12,866.35L1717.2,849.437C1718.52,849.05 1719.92,849.8 1720.31,851.124C1720.7,852.447 1719.95,853.839 1718.62,854.231L1661.54,871.145C1661.31,871.214 1661.07,871.248 1660.83,871.248Z" style="fill:rgb(62,107,171);fill-rule:nonzero;"/>
        <path d="M1660.83,862.791C1660.19,862.791 1659.55,862.547 1659.07,862.06C1658.09,861.083 1658.09,859.501 1659.07,858.523C1659.63,857.964 1660.93,856.653 1713.71,841.678C1715.04,841.302 1716.42,842.073 1716.8,843.4C1717.17,844.729 1716.4,846.111 1715.07,846.488C1696.17,851.854 1665.33,860.839 1662.28,862.33C1661.85,862.638 1661.34,862.791 1660.83,862.791Z" style="fill:rgb(62,107,171);fill-rule:nonzero;"/>
        <path d="M1755.26,904.457C1755.03,904.457 1754.79,904.429 1754.55,904.369C1752.94,903.974 1751.95,902.349 1752.35,900.739L1759.01,873.668C1759.26,872.643 1760.04,871.824 1761.05,871.516C1762.06,871.207 1763.15,871.453 1763.94,872.162L1775.6,882.732C1776.83,883.845 1776.92,885.742 1775.81,886.97C1774.69,888.197 1772.8,888.291 1771.57,887.178L1763.63,879.985L1758.18,902.173C1757.84,903.541 1756.61,904.457 1755.26,904.457Z" style="fill:rgb(213,74,65);fill-rule:nonzero;"/>
        <path d="M1673.42,341.639L1620.71,391.357C1607.02,402.007 1605.47,410.129 1608.05,427.284C1611.24,448.513 1616.66,464.691 1625.38,464.691C1640.38,464.691 1639.05,423.024 1639.05,423.024L1690.2,371.566L1673.42,341.639Z" style="fill:rgb(240,153,89);fill-rule:nonzero;"/>
        <path d="M1673.42,341.639L1657.85,353.747C1651.09,373.88 1648.47,397.239 1649.05,412.957L1690.2,371.566L1673.42,341.639Z" style="fill:rgb(227,133,64);fill-rule:nonzero;"/>
        <path d="M1728.45,391.18C1717.46,412.694 1698.39,430.58 1683.62,426.769C1668.32,422.821 1652.88,396.692 1664.48,372.824C1675.72,349.69 1691.65,332.166 1709.31,337.235C1726.98,342.304 1740.16,368.278 1728.45,391.18Z" style="fill:rgb(240,153,89);fill-rule:nonzero;"/>
        <path d="M1640.05,705.357C1658.05,732.691 1674.71,752.024 1680.05,772.691C1685.38,793.357 1671.38,825.357 1663.05,814.691C1654.71,804.024 1643.38,801.18 1640.71,771.357C1637.38,734.024 1624.05,728.899 1624.05,728.899L1640.05,705.357Z" style="fill:rgb(240,153,89);fill-rule:nonzero;"/>
        <path d="M1573.05,408.385C1593.05,418.024 1594.05,582.024 1625.05,653.024C1656.05,724.024 1656.71,724.503 1656.71,724.503C1656.71,724.503 1629.94,740.2 1624.16,742.899C1618.38,745.598 1550.78,658.037 1538.05,609.024C1515.05,520.524 1492.55,506.524 1467.05,502.524C1471.55,489.524 1496.05,459.024 1525.05,434.024C1554.05,409.024 1573.05,408.385 1573.05,408.385Z" style="fill:rgb(250,207,80);fill-rule:nonzero;"/>
        <path d="M1728.8,529.848C1728.8,529.848 1747.13,516.024 1763.15,518.024C1779.18,520.024 1810.68,534.524 1804.18,539.524C1797.68,544.524 1779.68,545.024 1768.68,539.524C1757.68,534.024 1731.3,527.348 1728.8,529.848Z" style="fill:rgb(240,153,89);fill-rule:nonzero;"/>
        <path d="M1633.74,379.071C1656.71,377.357 1667.85,360.549 1669.93,358.024C1672.02,355.499 1673.3,378.071 1677.71,379.691C1682.13,381.311 1687.11,368.972 1692.58,358.498C1698.05,348.024 1705.38,348.972 1706.05,358.498C1706.71,368.024 1713.23,396.708 1728.8,403.165C1741.38,408.385 1752.05,410.37 1752.05,410.37C1752.05,410.37 1748.29,390.254 1749.71,373.024C1752.05,344.71 1727.43,320.699 1708.05,317.357C1692.58,314.691 1665.79,316.886 1654.71,338.691C1644.05,359.691 1633.74,379.071 1633.74,379.071Z" style="fill:rgb(58,56,77);fill-rule:nonzero;"/>
        <path d="M1678.55,366.294C1676.33,373.041 1670.68,377.242 1665.92,375.678C1661.16,374.113 1659.1,367.375 1661.31,360.628C1663.53,353.881 1669.19,349.68 1673.95,351.245C1678.71,352.809 1680.77,359.547 1678.55,366.294Z" style="fill:rgb(240,153,89);fill-rule:nonzero;"/>
        <path d="M2720.12,874.881C2706.94,864.713 2642.46,890.721 2641.14,914.482C2639.82,938.243 2658.85,988.99 2700.1,992.585C2741.36,996.18 2746.31,991.485 2749.83,958.924C2753.35,926.363 2738.38,888.961 2720.12,874.881Z" style="fill:rgb(58,56,77);fill-rule:nonzero;"/>
        <path d="M2897.53,1679.08C2897.53,1679.08 2926.86,1691.2 2922.17,1697.46C2917.47,1703.73 2931.55,1739.51 2931.55,1739.51L2925.69,1739.51L2914.54,1716.5C2914.54,1716.5 2919.23,1744.36 2909.26,1748.68C2899.29,1753.01 2864.67,1762.83 2867.02,1754.77C2868.27,1750.48 2876.55,1739.95 2876.55,1739.95L2897.53,1679.08Z" style="fill:rgb(48,60,96);fill-rule:nonzero;"/>
        <path d="M2878.92,1684.32C2884.03,1698.45 2879.34,1737.75 2872.3,1745.38C2865.26,1753.01 2894.01,1745.97 2899.29,1738.93C2904.57,1731.89 2903.23,1685.93 2903.23,1685.93L2878.92,1684.32Z" style="fill:rgb(240,153,89);fill-rule:nonzero;"/>
        <path d="M2559.58,1685.07C2559.58,1685.07 2579.66,1709.65 2572.55,1712.94C2565.45,1716.22 2560.86,1754.41 2560.86,1754.41L2555.69,1751.62L2556.8,1726.07C2556.8,1726.07 2547.71,1752.82 2536.88,1751.89C2526.05,1750.97 2487.58,1748.68 2496.81,1737.2C2499.61,1733.72 2511.34,1729.39 2511.34,1729.39L2559.58,1685.07Z" style="fill:rgb(48,60,96);fill-rule:nonzero;"/>
        <path d="M2540.72,1680.84C2538.52,1695.7 2515.73,1728.07 2505.91,1731.45C2496.1,1734.82 2524.74,1742.26 2532.73,1738.57C2540.72,1734.88 2561.36,1693.79 2561.36,1693.79L2540.72,1680.84Z" style="fill:rgb(240,153,89);fill-rule:nonzero;"/>
        <path d="M2695.71,1231.12C2695.71,1231.12 2737.07,1439.44 2758.19,1486.06C2774.15,1521.31 2876.11,1695.51 2889.31,1692.87C2902.51,1690.23 2903.23,1685.93 2903.23,1685.93C2903.23,1685.93 2864.36,1547.21 2843.55,1518.63C2810.99,1473.89 2818.91,1462.17 2818.03,1378.56C2817.15,1294.96 2818.07,1293.34 2796.05,1243.17L2774.03,1193.01L2695.71,1231.12Z" style="fill:rgb(240,153,89);fill-rule:nonzero;"/>
        <path d="M2695.71,1213.9C2695.71,1213.9 2599.09,1440.3 2592.4,1464.06C2585.7,1487.82 2539.06,1689.35 2539.06,1689.35C2539.06,1689.35 2549.84,1698.69 2558.11,1697.33C2566.38,1695.96 2639.43,1557.35 2641.35,1512.47C2643.28,1467.58 2731.79,1374.3 2742.35,1334.7C2752.91,1295.1 2695.71,1213.9 2695.71,1213.9Z" style="fill:rgb(240,153,89);fill-rule:nonzero;"/>
        <path d="M2886.23,1318.86C2886.23,1318.86 2899.87,1432.38 2898.99,1465.38C2898.11,1498.38 2899.03,1502.34 2899.03,1502.34L3021.32,1483.42C3021.32,1483.42 3005.04,1422.48 2998.88,1406.75C2992.72,1391.02 2886.23,1318.86 2886.23,1318.86Z" style="fill:rgb(243,113,104);fill-rule:nonzero;"/>
        <path d="M2889.75,1323.04C2889.75,1323.04 2896.46,1373.86 2903.23,1427.54C2909.99,1481.22 2910.43,1494.42 2910.43,1494.42L3021.32,1479.36L2889.75,1323.04Z" style="fill:white;fill-rule:nonzero;"/>
        <path d="M2946.95,1315.12C2941.23,1316.66 2881.83,1315.12 2881.83,1315.12C2881.83,1315.12 2906.91,1397.18 2921.87,1486.06C2985.68,1479.36 3037.16,1477.26 3037.16,1477.26C3037.16,1477.26 3009.55,1387.5 2995.41,1356.7C2981.28,1325.9 2975.12,1315.12 2975.12,1315.12L2946.95,1315.12Z" style="fill:rgb(243,113,104);fill-rule:nonzero;"/>
        <path d="M2941.67,1271.68C2941.67,1271.68 2955.75,1295.98 2958.39,1312.26C2961.04,1328.54 2957.51,1360.66 2950.03,1360.66C2942.55,1360.66 2942.11,1357.92 2937.27,1340.37C2932.43,1322.82 2929.79,1316.17 2929.79,1316.17L2919.23,1316.17L2919.23,1269.58L2941.67,1271.68Z" style="fill:rgb(240,153,89);fill-rule:nonzero;"/>
        <path d="M2778.87,1201.37C2781.21,1204.39 2818.32,1266.06 2824.19,1320.62C2830.06,1375.18 2828.88,1467.29 2828.88,1467.29L2799.47,1473.16L2781.95,1353.47L2774.32,1473.16C2774.32,1473.16 2741.47,1484.89 2695.71,1476.09C2649.94,1467.29 2599.49,1436.2 2599.49,1436.2L2688.66,1221.47L2778.87,1201.37Z" style="fill:rgb(57,72,115);fill-rule:nonzero;"/>
        <path d="M2745.87,1007.33C2745.87,1007.33 2790.75,1021.99 2795.15,1042.38C2799.05,1060.45 2783.87,1174.94 2780.37,1200.71C2779.93,1203.95 2777.87,1206.73 2774.91,1208.11C2760.62,1214.71 2717.71,1233.44 2695.71,1231.12C2671.95,1228.61 2641.66,1099.97 2644.66,1086.53C2649.06,1066.82 2680.74,1018.62 2705.38,1008.13C2730.03,997.646 2745.87,1007.33 2745.87,1007.33Z" style="fill:rgb(242,242,242);fill-rule:nonzero;"/>
        <path d="M2715.07,940.997C2715.07,940.997 2730.47,999.732 2739.27,1003.25C2748.07,1006.77 2715.07,1057.55 2695.71,1056.17C2676.34,1054.78 2705.38,1008.13 2705.38,1008.13L2686.04,948.598L2715.07,940.997Z" style="fill:rgb(240,153,89);fill-rule:nonzero;"/>
        <path d="M2721.58,963.625C2716.84,982.263 2710.44,990.955 2702.43,999.045L2686.04,948.598L2715.07,940.997C2715.07,940.997 2717.32,952.563 2721.58,963.625Z" style="fill:rgb(227,133,64);fill-rule:nonzero;"/>
        <path d="M2650.38,927.698C2643.49,950.854 2644.93,976.955 2658.25,984.396C2672.04,992.104 2701.25,983.86 2709.34,958.583C2717.18,934.084 2717.75,910.414 2701.47,901.886C2685.2,893.357 2657.73,903.046 2650.38,927.698Z" style="fill:rgb(240,153,89);fill-rule:nonzero;"/>
        <path d="M2417.46,919.159L2441.52,850.356C2441.52,850.356 2342.76,771.315 2288.88,762.694C2258.22,757.79 2232.05,765.658 2232.05,765.658L2182.06,860.309C2182.06,860.309 2272.79,870.73 2308.04,899.542C2343.29,928.354 2380.4,962.567 2380.4,962.567C2380.4,962.567 2401.52,953.488 2417.46,919.159Z" style="fill:white;fill-rule:nonzero;"/>
        <path d="M2444.46,935.603C2444.46,935.603 2424.53,915.406 2419.81,907.002C2415.1,898.598 2404.41,885.441 2408.37,897.762C2412.33,910.082 2413.21,912.282 2412.33,921.962C2411.45,931.643 2404.41,935.603 2404.41,935.603L2436.97,952.764L2444.46,935.603Z" style="fill:rgb(240,153,89);fill-rule:nonzero;"/>
        <path d="M2700.1,1008.13C2700.1,1008.13 2558.42,1001.02 2545.22,994.931C2532.02,988.845 2439.62,928.138 2439.62,928.138C2439.62,928.138 2424.65,947.951 2423.77,948.598C2422.89,949.244 2519.7,1025.81 2539.06,1035.49C2558.42,1045.17 2649.06,1066.79 2649.06,1066.79C2649.06,1066.79 2632.34,1155.53 2625.3,1176.47C2618.26,1197.41 2612.98,1204.3 2612.98,1204.3C2612.98,1204.3 2639.38,1209.95 2650.82,1199.72C2662.26,1189.49 2664.9,1111.7 2664.9,1079.49C2664.9,1047.28 2700.1,1008.13 2700.1,1008.13Z" style="fill:rgb(57,72,115);fill-rule:nonzero;"/>
        <path d="M2776.23,1016.13C2776.23,1016.13 2807.47,1026.31 2838.71,1056.2C2869.95,1086.09 2915.27,1126.84 2924.07,1150.42C2932.87,1174 2946.95,1276.48 2946.95,1276.48C2946.95,1276.48 2922.31,1284.83 2918.79,1281.14C2915.27,1277.45 2891.07,1187.72 2878.75,1172.33C2866.43,1156.95 2799.47,1094.45 2799.47,1094.45L2823.31,1185.52C2823.31,1185.52 2790.14,1207.22 2767.56,1196.16C2744.99,1185.09 2735.16,1155.92 2720.27,1120.34C2705.38,1084.77 2745.87,1007.33 2745.87,1007.33L2776.23,1016.13Z" style="fill:rgb(57,72,115);fill-rule:nonzero;"/>
        <path d="M2734.43,991.779C2735.89,993.539 2745.87,1007.33 2745.87,1007.33C2745.87,1007.33 2725.94,1048.74 2716.98,1056.2C2708.03,1063.65 2696.58,1060.71 2696.58,1060.71C2696.58,1060.71 2671.87,1050.48 2676.89,1041.19C2686.79,1022.84 2700.1,1008.13 2700.1,1008.13L2703.17,1001.31L2705.38,1008.13C2705.38,1008.13 2701.28,1014.07 2698.05,1022.58C2694.82,1031.09 2695.41,1052.5 2693.94,1055.14C2692.48,1057.78 2698.05,1055.73 2701.57,1045.17C2705.09,1034.61 2705.97,1019.06 2705.97,1019.06C2705.97,1019.06 2721.52,1010.26 2726.8,1003.81C2732.08,997.352 2734.43,991.779 2734.43,991.779Z" style="fill:rgb(242,242,242);fill-rule:nonzero;"/>
        <path d="M2228.95,835.257C2228.51,835.257 2228.06,835.141 2227.66,834.896C2226.48,834.183 2226.1,832.646 2226.81,831.464L2259.74,776.952C2260.46,775.771 2261.99,775.393 2263.17,776.105C2264.35,776.819 2264.73,778.356 2264.02,779.538L2231.09,834.05C2230.62,834.827 2229.79,835.257 2228.95,835.257Z" style="fill:rgb(62,107,171);fill-rule:nonzero;"/>
        <path d="M2298.04,846.524C2297.58,846.524 2297.1,846.393 2296.68,846.116C2295.52,845.36 2295.2,843.812 2295.96,842.655L2326.38,796.155C2327.13,795 2328.68,794.677 2329.84,795.433C2330.99,796.188 2331.32,797.737 2330.56,798.894L2300.14,845.394C2299.66,846.126 2298.86,846.524 2298.04,846.524Z" style="fill:rgb(62,107,171);fill-rule:nonzero;"/>
        <path d="M2340.55,864.326C2340.31,864.326 2340.07,864.292 2339.83,864.221C2338.51,863.827 2337.76,862.435 2338.15,861.111C2338.26,860.742 2338.49,859.974 2361.9,820.706C2362.61,819.521 2364.14,819.132 2365.33,819.839C2366.51,820.546 2366.9,822.08 2366.19,823.267C2357.29,838.209 2343.8,860.937 2342.85,862.797C2342.46,863.734 2341.54,864.326 2340.55,864.326Z" style="fill:rgb(62,107,171);fill-rule:nonzero;"/>
        <path d="M2248.58,837.732C2248.15,837.732 2247.72,837.623 2247.32,837.392C2246.13,836.696 2245.73,835.165 2246.42,833.973L2278.64,778.765C2279.33,777.571 2280.87,777.171 2282.06,777.865C2283.25,778.561 2283.65,780.092 2282.96,781.284L2250.74,836.492C2250.28,837.289 2249.44,837.732 2248.58,837.732Z" style="fill:rgb(62,107,171);fill-rule:nonzero;"/>
        <path d="M2286.72,841.634C2286.27,841.634 2285.82,841.513 2285.41,841.259C2284.23,840.531 2283.87,838.99 2284.6,837.816C2285.7,836.039 2311.61,794.242 2314.01,790.969C2314.83,789.855 2316.39,789.613 2317.51,790.434C2318.62,791.251 2318.86,792.815 2318.04,793.928C2316.21,796.422 2298.14,825.45 2288.85,840.451C2288.37,841.214 2287.56,841.634 2286.72,841.634Z" style="fill:rgb(62,107,171);fill-rule:nonzero;"/>
        <path d="M2308.62,891.882C2307.19,891.882 2305.92,890.853 2305.67,889.393C2305.39,887.76 2306.48,886.208 2308.11,885.926L2322.25,883.484L2309.05,856.392C2308.32,854.902 2308.94,853.106 2310.43,852.381C2311.92,851.656 2313.71,852.275 2314.44,853.765L2329.39,884.447C2329.8,885.295 2329.79,886.288 2329.36,887.128C2328.93,887.968 2328.13,888.557 2327.2,888.717L2309.13,891.838C2308.96,891.868 2308.79,891.882 2308.62,891.882Z" style="fill:rgb(213,74,65);fill-rule:nonzero;"/>
        <path d="M2331.82,857.578C2331.38,857.578 2330.93,857.462 2330.53,857.216C2329.35,856.501 2328.97,854.963 2329.68,853.782L2352.42,816.271C2353.13,815.091 2354.67,814.712 2355.85,815.43C2357.03,816.145 2357.41,817.683 2356.69,818.863L2333.96,856.374C2333.49,857.149 2332.67,857.578 2331.82,857.578Z" style="fill:rgb(62,107,171);fill-rule:nonzero;"/>
        <path d="M2372.04,896.455C2371.61,896.455 2371.18,896.348 2370.79,896.12C2369.59,895.43 2369.18,893.9 2369.88,892.705L2395.26,848.754C2395.95,847.559 2397.48,847.149 2398.68,847.839C2399.87,848.529 2400.28,850.059 2399.59,851.254L2374.21,895.205C2373.74,896.007 2372.9,896.455 2372.04,896.455Z" style="fill:rgb(62,107,171);fill-rule:nonzero;"/>
        <path d="M2389.47,901.381C2389.05,901.381 2388.63,901.277 2388.24,901.058C2387.04,900.38 2386.61,898.854 2387.29,897.652L2408.89,859.385C2409.57,858.181 2411.1,857.758 2412.29,858.437C2413.5,859.114 2413.92,860.64 2413.24,861.842L2391.65,900.109C2391.19,900.924 2390.34,901.381 2389.47,901.381Z" style="fill:rgb(62,107,171);fill-rule:nonzero;"/>
        <path d="M2646.42,916.242C2658.3,940.443 2711.42,938.818 2711.04,942.051C2710.67,945.284 2720.79,992.072 2732.67,991.779C2744.55,991.485 2721.58,894.241 2721.58,894.241L2672.38,896.441L2646.42,916.242Z" style="fill:rgb(58,56,77);fill-rule:nonzero;"/>
        <path d="M2743.55,911.133C2763.47,903.042 2766.99,906.122 2773.59,916.683C2780.19,927.243 2787.67,931.431 2786.35,940.997C2785.03,950.563 2787.23,960.438 2783.27,970.021C2779.31,979.605 2765.67,980.485 2754.23,986.205C2742.79,991.925 2737.33,975.184 2737.33,975.184L2743.55,911.133Z" style="fill:rgb(58,56,77);fill-rule:nonzero;"/>
        <path d="M2704.4,944.793C2702.65,952.035 2705.24,958.881 2710.2,960.084C2715.16,961.287 2720.61,956.391 2722.36,949.148C2724.12,941.905 2721.52,935.059 2716.56,933.856C2711.6,932.654 2706.16,937.55 2704.4,944.793Z" style="fill:rgb(240,153,89);fill-rule:nonzero;"/>
        <path d="M998.352,1707.94C998.352,1707.94 1004.76,1732.69 1026.57,1738.94C1048.37,1745.19 1069.63,1757.33 1039,1757.7C1005.39,1758.11 986.125,1756.53 972.157,1754.18C958.189,1751.84 967.339,1727.22 969.559,1715.49C971.778,1703.77 998.352,1707.94 998.352,1707.94Z" style="fill:rgb(15,45,92);fill-rule:nonzero;"/>
        <path d="M820.62,1687.82C820.62,1687.82 815.95,1737.26 827.837,1741.51C839.725,1745.76 853.311,1755.95 836.328,1755.95C819.346,1755.95 798.334,1759.96 792.838,1741.51C786.135,1719.01 770.976,1715.21 776.38,1703.76C781.786,1692.31 798.119,1671.03 798.119,1671.03L820.62,1687.82Z" style="fill:rgb(15,45,92);fill-rule:nonzero;"/>
        <path d="M1047.85,1172.11L1004.69,1718.43C1004.69,1718.43 982.273,1728.79 966.114,1730.35C949.954,1731.92 916.532,1468.55 919.366,1426.44C922.2,1384.33 890.164,1250.6 897.584,1207.26C905.004,1163.92 1047.85,1172.11 1047.85,1172.11Z" style="fill:rgb(14,58,130);fill-rule:nonzero;"/>
        <path d="M961.495,1175C964.538,1174.6 967.605,1174.23 970.676,1173.91L1045.23,1202.76L1031.48,1363.89C995.749,1442.42 952.995,1516.55 931.519,1564.46C921.736,1507.48 918.047,1446.02 919.366,1426.44C920.73,1406.16 914.008,1364.63 907.5,1322.18L961.495,1175Z" style="fill:rgb(15,45,92);fill-rule:nonzero;"/>
        <path d="M1026.57,1254.66C984.728,1440.65 820.15,1700.23 820.327,1700.23C820.504,1700.23 789.578,1694.89 788.015,1680.82C786.452,1666.75 805.666,1493.72 847.504,1453C889.344,1412.29 892.2,1218.97 892.2,1218.97L1026.57,1254.66Z" style="fill:rgb(14,58,130);fill-rule:nonzero;"/>
        <path d="M927.916,994.665C880.853,1042 850.667,1123.39 850.258,1143.53C849.849,1163.67 904.523,1199.61 904.523,1199.61L927.916,994.665Z" style="fill:rgb(54,141,168);fill-rule:nonzero;"/>
        <path d="M980.866,890.211L962.23,982.946L1013.2,1037.82L1019.98,925.369L980.866,890.211Z" style="fill:rgb(240,153,89);fill-rule:nonzero;"/>
        <path d="M962.23,954.028C962.23,954.028 938.19,962.464 911.433,1030.39C884.675,1098.32 866.086,1265.71 866.086,1265.71C866.086,1265.71 917.5,1309.36 991.105,1309.34C1038.01,1309.33 1061.7,1298.79 1061.7,1298.79C1061.7,1298.79 1066.39,1141.02 1061.7,1084.07C1057.01,1027.13 985.453,952.595 962.23,954.028Z" style="fill:rgb(99,172,194);fill-rule:nonzero;"/>
        <path d="M1061.7,1084.07C1057.01,1027.13 985.453,952.595 962.23,954.028C962.23,954.028 952.259,957.532 938.015,978.165C962.04,966.472 991.98,986.86 1019.98,1052.86C1033.99,1085.88 1048.85,1133.38 1063.69,1143.74C1063.49,1120.11 1062.91,1098.75 1061.7,1084.07Z" style="fill:rgb(54,141,168);fill-rule:nonzero;"/>
        <path d="M1000.44,968.258C985.296,950.616 979.677,923.663 977.593,906.495L980.538,891.842L984.33,893.325L1019.98,925.369L1016.49,983.219C1011.52,979.678 1006.09,974.844 1000.44,968.258Z" style="fill:rgb(227,133,64);fill-rule:nonzero;"/>
        <path d="M992.511,910.645C998.362,938.246 1023.78,953.497 1044.88,949.024C1065.98,944.552 1070.59,917.812 1064.74,890.211C1058.89,862.61 1041.22,848.099 1020.12,852.571C999.02,857.043 986.66,883.044 992.511,910.645Z" style="fill:rgb(240,153,89);fill-rule:nonzero;"/>
        <path d="M969.433,933.08L953.462,960.059L1038.1,1023.34C1038.1,1023.34 1031.73,994.011 1030.02,983.219C1028.31,972.427 970.776,930.811 969.433,933.08Z" style="fill:rgb(99,172,194);fill-rule:nonzero;"/>
        <path d="M1069.67,833.824C1105.22,845.001 1076.16,889.802 1064.74,890.211C1053.32,890.62 1049.16,879.981 1039.78,882.435C1030.4,884.889 1021.54,868.215 1015.81,871.862C1010.08,875.509 1013.72,909.378 1015.81,915.11C1017.89,920.842 1008.51,921.363 1008.51,921.363C1008.51,921.363 1004.69,897.394 998.787,898.957C992.881,900.521 988.499,917.194 980.008,921.363L971.518,925.531C971.518,925.531 966.307,889.36 958.491,882.435C950.675,875.509 955.574,851.541 966.672,846.851C977.77,842.162 980.448,820.798 995.783,819.235C1011.12,817.671 1023.62,828.093 1043.95,825.487C1064.27,822.882 1059.73,830.698 1069.67,833.824Z" style="fill:rgb(21,63,156);fill-rule:nonzero;"/>
        <path d="M983.542,904.822C986.467,911.704 992.973,915.526 998.073,913.358C1003.17,911.191 1004.94,903.854 1002.01,896.972C999.087,890.09 992.582,886.268 987.481,888.436C982.381,890.603 980.617,897.939 983.542,904.822Z" style="fill:rgb(240,153,89);fill-rule:nonzero;"/>
        <path d="M944.932,1004.48C944.932,1004.48 1032.15,1101.48 1063.55,1131.48C1063.98,1159.42 1063.76,1191.96 1063.35,1220.89C1046.33,1212.52 999.065,1188.04 972.157,1162.09C938.927,1130.05 924.101,1056.58 944.932,1004.48Z" style="fill:rgb(54,141,168);fill-rule:nonzero;"/>
        <path d="M1201.35,1132.22C1207.1,1096.41 1272.1,992.165 1296.64,980.132C1310.18,973.497 1432.37,994.09 1432.37,994.09C1432.37,994.09 1293.75,1114.41 1275.95,1178.9C1260.04,1236.52 1261.99,1258.33 1261.99,1258.33L1206,1217.41C1206,1217.41 1192.68,1186.12 1201.35,1132.22Z" style="fill:rgb(219,229,235);fill-rule:nonzero;"/>
        <path d="M1185.96,1131.43C1185.96,1131.43 1206.82,1105.6 1215.14,1108.09C1223.46,1110.57 1226.6,1110.97 1233.9,1110.57C1241.19,1110.17 1241.71,1120.72 1231.29,1139.67C1220.87,1158.63 1192.73,1162.43 1185.96,1162.09C1179.18,1161.76 1185.96,1131.43 1185.96,1131.43Z" style="fill:rgb(240,153,89);fill-rule:nonzero;"/>
        <path d="M954.671,983.219C920.942,992.189 931.917,1077.69 950.923,1112.99C964.584,1138.37 1010.22,1164.24 1038.1,1171.5C1065.99,1178.75 1186.92,1163.67 1186.92,1163.67C1186.92,1163.67 1191.37,1123.81 1182.95,1123.81C1174.53,1123.81 1074.68,1121.5 1047.85,1097.24C1021.02,1072.99 995.403,972.387 954.671,983.219Z" style="fill:rgb(99,172,194);fill-rule:nonzero;"/>
        <path d="M1206,1130.78C1197.02,1125 1217.81,1091.84 1217.81,1091.84L1241.77,1091.84C1241.77,1091.84 1234.07,1100.92 1222.76,1110.07C1211.45,1119.22 1206,1130.78 1206,1130.78Z" style="fill:rgb(219,229,235);fill-rule:nonzero;"/>
        <path d="M1372.45,1027.87C1372.29,1027.87 1372.14,1027.86 1371.98,1027.83L1314.93,1017C1313.57,1016.74 1312.68,1015.43 1312.94,1014.08C1313.19,1012.72 1314.51,1011.83 1315.86,1012.09L1372.91,1022.92C1374.27,1023.17 1375.16,1024.48 1374.9,1025.84C1374.67,1027.04 1373.62,1027.87 1372.45,1027.87Z" style="fill:rgb(62,107,171);fill-rule:nonzero;"/>
        <path d="M1343.92,1058.92C1343.63,1058.92 1343.34,1058.87 1343.05,1058.76L1297.94,1042.16C1296.65,1041.68 1295.98,1040.25 1296.46,1038.95C1296.94,1037.65 1298.38,1036.99 1299.67,1037.47L1344.78,1054.07C1346.08,1054.55 1346.74,1055.98 1346.26,1057.28C1345.89,1058.29 1344.94,1058.92 1343.92,1058.92Z" style="fill:rgb(62,107,171);fill-rule:nonzero;"/>
        <path d="M1335.63,1067.58C1335.34,1067.58 1335.05,1067.53 1334.77,1067.43C1321.06,1062.44 1294.55,1052.84 1292.32,1052.18C1291,1051.78 1290.24,1050.39 1290.64,1049.07C1291.03,1047.74 1292.42,1046.99 1293.75,1047.38C1296.67,1048.26 1334.86,1062.14 1336.48,1062.73C1337.78,1063.2 1338.45,1064.64 1337.98,1065.93C1337.61,1066.95 1336.65,1067.58 1335.63,1067.58Z" style="fill:rgb(62,107,171);fill-rule:nonzero;"/>
        <path d="M1303.14,1105.69C1302.81,1105.69 1302.48,1105.63 1302.16,1105.49C1288.58,1099.73 1266.11,1090.4 1263.67,1089.91C1262.31,1089.64 1261.43,1088.32 1261.7,1086.97C1261.97,1085.62 1263.29,1084.74 1264.65,1085.01C1268.32,1085.74 1298.17,1098.37 1304.12,1100.89C1305.39,1101.43 1305.98,1102.89 1305.44,1104.17C1305.04,1105.12 1304.11,1105.69 1303.14,1105.69Z" style="fill:rgb(62,107,171);fill-rule:nonzero;"/>
        <path d="M1298.81,1113.81C1298.49,1113.81 1298.16,1113.75 1297.84,1113.62L1259.58,1097.63C1258.31,1097.1 1257.71,1095.64 1258.24,1094.36C1258.77,1093.09 1260.23,1092.49 1261.51,1093.02L1299.77,1109C1301.04,1109.54 1301.65,1111 1301.11,1112.27C1300.71,1113.23 1299.79,1113.81 1298.81,1113.81Z" style="fill:rgb(62,107,171);fill-rule:nonzero;"/>
        <path d="M1381.35,1018.49C1381.2,1018.49 1381.04,1018.47 1380.89,1018.45L1320.9,1007.13C1319.54,1006.88 1318.65,1005.57 1318.91,1004.21C1319.16,1002.86 1320.47,1001.96 1321.83,1002.22L1381.81,1013.53C1383.17,1013.79 1384.06,1015.09 1383.81,1016.45C1383.58,1017.65 1382.53,1018.49 1381.35,1018.49Z" style="fill:rgb(62,107,171);fill-rule:nonzero;"/>
        <path d="M1275.46,1139.29C1275.15,1139.29 1274.82,1139.23 1274.51,1139.1L1247.08,1127.79C1245.8,1127.27 1245.19,1125.8 1245.72,1124.53C1246.25,1123.25 1247.7,1122.65 1248.98,1123.17L1276.42,1134.48C1277.69,1135.01 1278.3,1136.47 1277.78,1137.75C1277.38,1138.71 1276.45,1139.29 1275.46,1139.29Z" style="fill:rgb(62,107,171);fill-rule:nonzero;"/>
        <path d="M1270.17,1151.08C1269.82,1151.08 1269.46,1151.01 1269.12,1150.85L1243.61,1139.06C1242.36,1138.48 1241.81,1137 1242.39,1135.74C1242.97,1134.49 1244.46,1133.94 1245.71,1134.52L1271.22,1146.31C1272.47,1146.89 1273.02,1148.38 1272.44,1149.63C1272.02,1150.55 1271.11,1151.08 1270.17,1151.08Z" style="fill:rgb(62,107,171);fill-rule:nonzero;"/>
        <path d="M1255.97,1195.36C1255.63,1195.36 1255.28,1195.29 1254.95,1195.14L1220.06,1179.5C1218.8,1178.94 1218.23,1177.46 1218.8,1176.2C1219.36,1174.94 1220.84,1174.38 1222.1,1174.94L1257,1190.58C1258.25,1191.14 1258.82,1192.62 1258.25,1193.88C1257.84,1194.81 1256.93,1195.36 1255.97,1195.36Z" style="fill:rgb(62,107,171);fill-rule:nonzero;"/>
        <path d="M1250.68,1205.95C1250.34,1205.95 1250,1205.88 1249.67,1205.74C1217.95,1191.69 1217.27,1191.24 1217.04,1191.09C1215.9,1190.33 1215.59,1188.77 1216.35,1187.62C1217.09,1186.52 1218.56,1186.19 1219.7,1186.85C1221.13,1187.6 1239.57,1195.8 1251.69,1201.16C1252.95,1201.72 1253.52,1203.2 1252.96,1204.46C1252.55,1205.4 1251.64,1205.95 1250.68,1205.95Z" style="fill:rgb(62,107,171);fill-rule:nonzero;"/>
        <path d="M1261.75,1047.87C1261.13,1047.87 1260.51,1047.67 1259.98,1047.29C1259.08,1046.63 1258.62,1045.53 1258.78,1044.42L1261.19,1028.3C1261.43,1026.66 1262.96,1025.53 1264.6,1025.78C1266.24,1026.02 1267.37,1027.55 1267.12,1029.19L1265.56,1039.62L1295.79,1024.61C1297.27,1023.88 1299.07,1024.48 1299.81,1025.96C1300.55,1027.45 1299.94,1029.25 1298.46,1029.99L1263.08,1047.55C1262.66,1047.76 1262.2,1047.87 1261.75,1047.87Z" style="fill:rgb(213,74,65);fill-rule:nonzero;"/>
    </g>
</svg>
